<svg width="1356" height="1102" viewBox="0 0 1356 1102" fill="none" xmlns="http://www.w3.org/2000/svg">
<path d="M503 798.732C590.261 798.732 661 793.36 661 786.732C661 780.105 590.261 774.732 503 774.732C415.739 774.732 345 780.105 345 786.732C345 793.36 415.739 798.732 503 798.732Z" fill="#E6E6E6"/>
<path d="M465.772 369.42C493.269 357.725 527.517 365.135 560.963 370.278C561.274 364.05 565.047 356.47 561.095 352.125C556.294 346.846 556.736 341.299 559.625 335.721C567.013 321.456 556.428 306.277 545.741 293.656C543.332 290.818 540.288 288.588 536.855 287.147C533.422 285.706 529.698 285.096 525.985 285.365L506.188 286.779C501.37 287.123 496.773 288.93 493.011 291.958C489.248 294.987 486.5 299.092 485.135 303.725C480.408 310.154 477.878 316.565 479.471 322.943C472.39 327.782 471.2 333.623 474.382 340.208C477.08 344.354 477.051 348.389 474.259 352.313C470.593 357.316 467.784 362.894 465.949 368.819L465.772 369.42Z" fill="#2F2E41"/>
<path d="M1119.21 723.964H558.791C553.807 723.964 549.028 721.984 545.504 718.46C541.98 714.936 540 710.156 540 705.172C743.151 681.562 942.485 681.562 1138 705.172C1138 710.156 1136.02 714.936 1132.5 718.46C1128.97 721.984 1124.19 723.964 1119.21 723.964Z" fill="#2F2E41"/>
<path d="M1138 706.277L540 705.172L609.306 588.556L609.638 588.004V330.996C609.637 327.877 610.252 324.788 611.445 321.906C612.639 319.024 614.389 316.405 616.595 314.199C618.8 311.993 621.419 310.244 624.301 309.05C627.183 307.856 630.272 307.242 633.392 307.242H1041.29C1044.41 307.242 1047.5 307.856 1050.38 309.05C1053.26 310.244 1055.88 311.993 1058.09 314.199C1060.3 316.405 1062.04 319.024 1063.24 321.906C1064.43 324.788 1065.05 327.877 1065.05 330.996V589.772L1138 706.277Z" fill="#3F3D56"/>
<path d="M632.85 323.822C630.799 323.825 628.832 324.641 627.382 326.091C625.931 327.542 625.115 329.508 625.113 331.56V565.896C625.115 567.948 625.931 569.914 627.382 571.365C628.832 572.815 630.799 573.631 632.85 573.634H1045.15C1047.2 573.631 1049.17 572.815 1050.62 571.365C1052.07 569.914 1052.88 567.948 1052.89 565.896V331.56C1052.88 329.508 1052.07 327.542 1050.62 326.091C1049.17 324.641 1047.2 323.825 1045.15 323.822H632.85Z" fill="white"/>
<path d="M634.578 604.584C633.944 604.585 633.324 604.767 632.79 605.109C632.256 605.451 631.831 605.939 631.565 606.514L610.21 652.939C609.977 653.444 609.876 654 609.914 654.555C609.953 655.11 610.13 655.646 610.43 656.114C610.73 656.582 611.143 656.968 611.631 657.235C612.119 657.501 612.666 657.641 613.222 657.641H1062.31C1062.88 657.641 1063.44 657.497 1063.93 657.222C1064.42 656.946 1064.84 656.549 1065.13 656.068C1065.43 655.588 1065.6 655.039 1065.63 654.474C1065.65 653.909 1065.53 653.348 1065.28 652.842L1042.07 606.417C1041.79 605.865 1041.37 605.401 1040.85 605.077C1040.32 604.753 1039.72 604.582 1039.1 604.584H634.578Z" fill="#2F2E41"/>
<path d="M837.342 319.954C840.089 319.954 842.316 317.727 842.316 314.98C842.316 312.233 840.089 310.006 837.342 310.006C834.595 310.006 832.368 312.233 832.368 314.98C832.368 317.727 834.595 319.954 837.342 319.954Z" fill="white"/>
<path d="M793.2 666.484C792.471 666.485 791.763 666.726 791.184 667.169C790.605 667.613 790.189 668.234 789.998 668.938L784.641 688.834C784.509 689.326 784.491 689.841 784.59 690.341C784.689 690.84 784.901 691.31 785.211 691.714C785.521 692.118 785.919 692.445 786.375 692.671C786.832 692.896 787.334 693.013 787.843 693.013H889.717C890.246 693.013 890.767 692.887 891.237 692.644C891.706 692.402 892.112 692.051 892.418 691.62C892.725 691.19 892.924 690.692 892.999 690.169C893.074 689.645 893.023 689.112 892.85 688.612L885.963 668.716C885.737 668.064 885.314 667.499 884.752 667.099C884.191 666.7 883.519 666.485 882.829 666.484H793.2Z" fill="#2F2E41"/>
<path d="M1065.05 584.135V588.556H609.306L609.649 588.004V584.135H1065.05Z" fill="#2F2E41"/>
<path d="M1052.33 401.75C1095.07 401.75 1129.71 367.108 1129.71 324.375C1129.71 281.642 1095.07 247 1052.33 247C1009.6 247 974.959 281.642 974.959 324.375C974.959 367.108 1009.6 401.75 1052.33 401.75Z" fill="#FF6B6B"/>
<path d="M1084.39 358.089H1020.28C1019.11 358.088 1017.98 357.622 1017.15 356.793C1016.33 355.964 1015.86 354.84 1015.86 353.668V314.98C1015.86 313.808 1016.33 312.684 1017.15 311.855C1017.98 311.026 1019.11 310.56 1020.28 310.559H1084.39C1085.56 310.56 1086.69 311.026 1087.52 311.855C1088.34 312.684 1088.81 313.808 1088.81 314.98V353.668C1088.81 354.84 1088.34 355.964 1087.52 356.793C1086.69 357.622 1085.56 358.088 1084.39 358.089ZM1020.28 314.98V353.668H1084.39L1084.39 314.98L1020.28 314.98Z" fill="white"/>
<path d="M1072.23 314.98H1032.44V297.295C1032.44 284.485 1040.81 275.188 1052.33 275.188C1063.86 275.188 1072.23 284.485 1072.23 297.295L1072.23 314.98ZM1036.86 310.559H1067.81V297.295C1067.81 286.882 1061.45 279.609 1052.33 279.609C1043.22 279.609 1036.86 286.882 1036.86 297.295L1036.86 310.559Z" fill="white"/>
<path d="M1052.33 337.64C1054.78 337.64 1056.76 335.66 1056.76 333.218C1056.76 330.776 1054.78 328.797 1052.33 328.797C1049.89 328.797 1047.91 330.776 1047.91 333.218C1047.91 335.66 1049.89 337.64 1052.33 337.64Z" fill="white"/>
<path d="M998.32 494.149H679.68C678.116 494.147 676.616 493.525 675.51 492.419C674.403 491.313 673.781 489.813 673.779 488.248V409.207C673.781 407.643 674.403 406.143 675.51 405.037C676.616 403.931 678.116 403.308 679.68 403.307H998.32C999.884 403.308 1001.38 403.931 1002.49 405.037C1003.6 406.143 1004.22 407.643 1004.22 409.207V488.248C1004.22 489.813 1003.6 491.313 1002.49 492.419C1001.38 493.525 999.884 494.147 998.32 494.149ZM679.68 405.667C678.741 405.668 677.841 406.041 677.178 406.705C676.514 407.369 676.141 408.269 676.14 409.207V488.248C676.141 489.187 676.514 490.087 677.178 490.751C677.841 491.414 678.741 491.788 679.68 491.789H998.32C999.259 491.788 1000.16 491.414 1000.82 490.751C1001.49 490.087 1001.86 489.187 1001.86 488.248V409.207C1001.86 408.269 1001.49 407.369 1000.82 406.705C1000.16 406.041 999.259 405.668 998.32 405.667L679.68 405.667Z" fill="#E6E6E6"/>
<path d="M729.19 469.731C742.465 469.731 753.227 458.97 753.227 445.695C753.227 432.42 742.465 421.658 729.19 421.658C715.915 421.658 705.154 432.42 705.154 445.695C705.154 458.97 715.915 469.731 729.19 469.731Z" fill="#E6E6E6"/>
<path d="M784.703 429.672C784.176 429.671 783.655 429.774 783.168 429.975C782.681 430.176 782.239 430.471 781.866 430.843C781.494 431.215 781.198 431.657 780.996 432.143C780.794 432.63 780.691 433.151 780.691 433.678C780.691 434.205 780.794 434.726 780.996 435.212C781.198 435.699 781.494 436.141 781.866 436.513C782.239 436.885 782.681 437.18 783.168 437.381C783.655 437.582 784.176 437.685 784.703 437.684H973.561C974.623 437.684 975.642 437.262 976.393 436.511C977.145 435.759 977.567 434.74 977.567 433.678C977.567 432.615 977.145 431.597 976.393 430.845C975.642 430.094 974.623 429.672 973.561 429.672H784.703Z" fill="#E6E6E6"/>
<path d="M784.703 453.707C783.641 453.707 782.622 454.129 781.87 454.88C781.119 455.632 780.697 456.651 780.697 457.713C780.697 458.776 781.119 459.795 781.87 460.546C782.622 461.297 783.641 461.719 784.703 461.719H865.969C867.031 461.719 868.05 461.297 868.802 460.546C869.553 459.795 869.975 458.776 869.975 457.713C869.975 456.651 869.553 455.632 868.802 454.88C868.05 454.129 867.031 453.707 865.969 453.707H784.703Z" fill="#E6E6E6"/>
<path d="M608.522 455.328L549.619 486.644L548.873 460.547C568.099 457.338 586.39 451.75 603.303 442.653L609.463 427.433C610.134 425.774 611.225 424.319 612.629 423.209C614.033 422.1 615.701 421.375 617.47 421.105C619.238 420.834 621.047 421.029 622.717 421.669C624.388 422.309 625.864 423.372 627 424.755C628.661 426.778 629.492 429.356 629.323 431.969C629.154 434.581 627.999 437.031 626.091 438.824L608.522 455.328Z" fill="#FFB8B8"/>
<path d="M464.598 636.133C464.168 634.557 464.077 632.908 464.33 631.294C464.584 629.68 465.176 628.138 466.067 626.77L479.007 606.912C482.067 602.215 486.763 598.823 492.184 597.393C497.604 595.963 503.363 596.597 508.342 599.173C502.904 608.429 503.662 616.55 510.22 623.606C500.039 628.576 490.63 634.991 482.284 642.651C480.76 643.69 479.01 644.35 477.18 644.575C475.35 644.801 473.492 644.586 471.762 643.948C470.032 643.31 468.479 642.268 467.233 640.909C465.987 639.55 465.083 637.912 464.598 636.133Z" fill="#2F2E41"/>
<path d="M611.205 610.168C609.247 613.431 606.483 616.136 603.178 618.024C599.874 619.911 596.139 620.918 592.334 620.947L506.374 621.598L502.646 599.975L540.672 588.791L508.61 564.186L543.654 523.178L607.304 582.502C611.024 585.969 613.441 590.609 614.151 595.644C614.861 600.68 613.821 605.807 611.205 610.168Z" fill="#2F2E41"/>
<path d="M492.953 758.045H472.821C454.746 634.147 436.347 509.903 490.716 463.529L554.838 473.968L546.637 528.397L510.847 569.406L492.953 758.045Z" fill="#2F2E41"/>
<path d="M510.649 786.111C509.073 786.541 507.424 786.632 505.81 786.379C504.197 786.126 502.655 785.534 501.286 784.642L479.427 781.704C474.73 778.644 471.338 773.948 469.907 768.528C468.477 763.108 469.111 757.349 471.686 752.37C480.943 757.807 489.063 757.049 496.12 750.49C501.106 760.558 509.321 759.944 517.167 768.425C518.205 769.949 518.865 771.699 519.091 773.529C519.316 775.359 519.101 777.217 518.464 778.947C517.826 780.677 516.784 782.23 515.425 783.476C514.066 784.723 512.428 785.626 510.649 786.111Z" fill="#2F2E41"/>
<path d="M540.672 380.767L503.391 371.82C509.583 359.146 510.093 345.044 507.119 330.066L532.47 329.32C533.264 347.946 535.667 365.347 540.672 380.767Z" fill="#FFB8B8"/>
<path d="M550.918 496.418C523.779 514.911 504.603 497.051 489.97 469.495C492.004 452.633 488.711 432.454 482.614 410.528C479.902 400.857 480.914 390.521 485.451 381.561C489.988 372.6 497.719 365.666 507.119 362.127L539.18 375.548C566.404 397.738 571.762 421.775 561.549 447.126L550.918 496.418Z" fill="#FF6B6B"/>
<path d="M472.821 399.408L442.997 415.066L495.935 446.381L503.301 464.551C503.793 465.763 504.032 467.063 504.005 468.372C503.978 469.68 503.684 470.969 503.143 472.16C502.601 473.352 501.822 474.42 500.854 475.3C499.886 476.181 498.749 476.855 497.512 477.282C496.106 477.766 494.606 477.919 493.131 477.728C491.656 477.537 490.245 477.006 489.009 476.179C487.773 475.351 486.745 474.249 486.006 472.958C485.268 471.667 484.838 470.222 484.75 468.737L484.005 456.074L416.722 433.87C414.455 433.122 412.388 431.868 410.677 430.203C408.967 428.538 407.658 426.505 406.849 424.259C405.67 420.985 405.61 417.413 406.678 414.101C407.746 410.789 409.882 407.925 412.752 405.956L466.856 368.838L472.821 399.408Z" fill="#FFB8B8"/>
<path d="M502.646 402.391C490.207 396.94 478.896 402.861 464.62 407.61L462.383 368.093C476.559 360.537 490.075 358.5 502.646 364.365L502.646 402.391Z" fill="#FF6B6B"/>
<path d="M517.525 348.895C530.67 348.895 541.327 338.239 541.327 325.093C541.327 311.948 530.67 301.291 517.525 301.291C504.379 301.291 493.723 311.948 493.723 325.093C493.723 338.239 504.379 348.895 517.525 348.895Z" fill="#FFB8B8"/>
<path d="M546 322.09C522.434 324.398 504.477 320.544 493 309.57V300.732H544L546 322.09Z" fill="#2F2E41"/>
<path d="M272 66C286.912 66 299 53.9117 299 39C299 24.0883 286.912 12 272 12C257.088 12 245 24.0883 245 39C245 53.9117 257.088 66 272 66Z" fill="#FF6B6B"/>
<path d="M283.34 1090.29C309.477 1084.34 325.391 1056.34 318.885 1027.76C312.379 999.175 285.916 980.825 259.778 986.775C233.641 992.724 217.726 1020.72 224.233 1049.3C230.739 1077.89 257.202 1096.24 283.34 1090.29Z" fill="#FF6B6B"/>
<path d="M1315 950C1337.64 950 1356 931.644 1356 909C1356 886.356 1337.64 868 1315 868C1292.36 868 1274 886.356 1274 909C1274 931.644 1292.36 950 1315 950Z" fill="#FF6B6B"/>
</svg>
